<svg xmlns="http://www.w3.org/2000/svg" viewBox="0 0 100 100" width="100" height="100">
  <!-- Cloud -->
  <path d="M30 50 Q20 40 30 30 Q40 20 50 25 Q60 20 70 30 Q80 40 70 50 Q60 60 50 55 Q40 60 30 50 Z" fill="#A9A9A9" stroke="#808080" stroke-width="2"/>
  <!-- Snowflakes -->
  <circle cx="35" cy="60" r="2" fill="#FFFFFF"/>
  <circle cx="50" cy="65" r="2" fill="#FFFFFF"/>
  <circle cx="65" cy="60" r="2" fill="#FFFFFF"/>
  <path d="M35 60 L33 58 L35 60 L37 58 M50 65 L48 63 L50 65 L52 63 M65 60 L63 58 L65 60 L67 58" stroke="#FFFFFF" stroke-width="1" fill="none"/>
</svg>